<svg xmlns="http://www.w3.org/2000/svg" width="1200" height="630" viewBox="0 0 1200 630" font-family="ui-monospace, SFMono-Regular, Consolas, monospace"><defs><linearGradient id="bg" x1="0" y1="0" x2="1" y2="1"><stop offset="0%" stop-color="#0d1526"/><stop offset="100%" stop-color="#070c17"/></linearGradient></defs><rect width="1200" height="630" fill="url(#bg)"/><circle cx="1050" cy="70" r="220" fill="#1d4ed8" opacity="0.16"/><circle cx="120" cy="600" r="180" fill="#a78bfa" opacity="0.12"/><text x="60" y="80" fill="#e6edf7" font-size="36" font-weight="700">git wrapped</text><text x="60" y="114" fill="#8ea2c0" font-size="20">chalk/chalk</text><rect x="60" y="136" width="1080" height="1" fill="#243450"/><text x="60" y="196" fill="#8ea2c0" font-size="19">commits</text><text x="60" y="240" fill="#e6edf7" font-size="42" font-weight="700">359</text><text x="320" y="196" fill="#8ea2c0" font-size="19">active days</text><text x="320" y="240" fill="#e6edf7" font-size="42" font-weight="700">198</text><text x="580" y="196" fill="#8ea2c0" font-size="19">lines added</text><text x="580" y="240" fill="#34d399" font-size="42" font-weight="700">+9,990</text><text x="880" y="196" fill="#8ea2c0" font-size="19">lines removed</text><text x="880" y="240" fill="#fbbf24" font-size="42" font-weight="700">-7,203</text><text x="60" y="310" fill="#8ea2c0" font-size="19">when you commit</text><rect x="60.0" y="363.8" width="22.7" height="50.2" rx="3" fill="#c084fc"/><rect x="86.7" y="380.5" width="22.7" height="33.5" rx="3" fill="#c084fc"/><rect x="113.3" y="342.9" width="22.7" height="71.1" rx="3" fill="#c084fc"/><rect x="140.0" y="388.9" width="22.7" height="25.1" rx="3" fill="#c084fc"/><rect x="166.7" y="351.3" width="22.7" height="62.7" rx="3" fill="#c084fc"/><rect x="193.3" y="384.7" width="22.7" height="29.3" rx="3" fill="#c084fc"/><rect x="220.0" y="342.9" width="22.7" height="71.1" rx="3" fill="#38bdf8"/><rect x="246.7" y="363.8" width="22.7" height="50.2" rx="3" fill="#38bdf8"/><rect x="273.3" y="363.8" width="22.7" height="50.2" rx="3" fill="#38bdf8"/><rect x="300.0" y="326.2" width="22.7" height="87.8" rx="3" fill="#38bdf8"/><rect x="326.7" y="330.4" width="22.7" height="83.6" rx="3" fill="#38bdf8"/><rect x="353.3" y="326.2" width="22.7" height="87.8" rx="3" fill="#38bdf8"/><rect x="380.0" y="334.5" width="22.7" height="79.5" rx="3" fill="#38bdf8"/><rect x="406.7" y="338.7" width="22.7" height="75.3" rx="3" fill="#38bdf8"/><rect x="433.3" y="384.7" width="22.7" height="29.3" rx="3" fill="#38bdf8"/><rect x="460.0" y="372.2" width="22.7" height="41.8" rx="3" fill="#38bdf8"/><rect x="486.7" y="347.1" width="22.7" height="66.9" rx="3" fill="#38bdf8"/><rect x="513.3" y="351.3" width="22.7" height="62.7" rx="3" fill="#38bdf8"/><rect x="540.0" y="363.8" width="22.7" height="50.2" rx="3" fill="#38bdf8"/><rect x="566.7" y="359.6" width="22.7" height="54.4" rx="3" fill="#38bdf8"/><rect x="593.3" y="326.2" width="22.7" height="87.8" rx="3" fill="#38bdf8"/><rect x="620.0" y="338.7" width="22.7" height="75.3" rx="3" fill="#38bdf8"/><rect x="646.7" y="330.4" width="22.7" height="83.6" rx="3" fill="#c084fc"/><rect x="673.3" y="322.0" width="22.7" height="92.0" rx="3" fill="#c084fc"/><text x="60.0" y="438" fill="#8ea2c0" font-size="15">00</text><text x="220.0" y="438" fill="#8ea2c0" font-size="15">06</text><text x="380.0" y="438" fill="#8ea2c0" font-size="15">12</text><text x="540.0" y="438" fill="#8ea2c0" font-size="15">18</text><text x="770" y="330" fill="#8ea2c0" font-size="19">peak hour</text><text x="1140" y="330" fill="#38bdf8" font-size="22" font-weight="700" text-anchor="end">23:00</text><text x="770" y="376" fill="#8ea2c0" font-size="19">busiest day</text><text x="1140" y="376" fill="#e6edf7" font-size="22" font-weight="700" text-anchor="end">Wednesday</text><text x="770" y="422" fill="#8ea2c0" font-size="19">after midnight</text><text x="1140" y="422" fill="#c084fc" font-size="22" font-weight="700" text-anchor="end">30%</text><text x="770" y="468" fill="#8ea2c0" font-size="19">longest streak</text><text x="1140" y="468" fill="#34d399" font-size="22" font-weight="700" text-anchor="end">2 days</text><text x="770" y="514" fill="#8ea2c0" font-size="19">longest session</text><text x="1140" y="514" fill="#e6edf7" font-size="22" font-weight="700" text-anchor="end">2h 34m</text><text x="60" y="470" fill="#8ea2c0" font-size="19">files you keep coming back to</text><text x="60" y="500" fill="#38bdf8" font-size="19">readme.md</text><text x="620" y="500" fill="#8ea2c0" font-size="19" text-anchor="end">164x</text><text x="60" y="526" fill="#38bdf8" font-size="19">package.json</text><text x="620" y="526" fill="#8ea2c0" font-size="19" text-anchor="end">127x</text><text x="60" y="552" fill="#38bdf8" font-size="19">index.js</text><text x="620" y="552" fill="#8ea2c0" font-size="19" text-anchor="end">58x</text><rect x="60" y="566" width="1080" height="46" rx="12" fill="#131d33" stroke="#243450"/><text x="84" y="596" fill="#a78bfa" font-size="21">certified night shift</text><text x="1116" y="596" fill="#8ea2c0" font-size="16" text-anchor="end">npx gitwrapped  -  runs offline</text></svg>